{
  "accessors": [
    {
      "bufferView": 2,
      "componentType": 5126,
      "count": 15040,
      "max": [
        2.1064562797546387,
        5.256537437438965,
        3.6287331581115723
      ],
      "min": [
        -0.8502124547958374,
        -0.013915879651904106,
        -2.45816707611084
      ],
      "type": "VEC3"
    },
    {
      "bufferView": 2,
      "byteOffset": 180480,
      "componentType": 5126,
      "count": 15040,
      "max": [
        0.9998319745063782,
        0.9999774098396301,
        0.999971330165863
      ],
      "min": [
        -0.9997251629829407,
        -0.9999731183052063,
        -0.9999331831932068
      ],
      "type": "VEC3"
    },
    {
      "bufferView": 3,
      "componentType": 5126,
      "count": 15040,
      "max": [
        0.999911904335022,
        0.9999599456787109,
        0.9999679923057556,
        1.0
      ],
      "min": [
        -1.0,
        -0.9999909400939941,
        -0.9999816417694092,
        -1.0
      ],
      "type": "VEC4"
    },
    {
      "bufferView": 1,
      "componentType": 5126,
      "count": 15040,
      "max": [
        0.9912499785423279,
        0.9934700131416321
      ],
      "min": [
        0.006000000052154064,
        0.001510024070739746
      ],
      "type": "VEC2"
    },
    {
      "bufferView": 1,
      "byteOffset": 120320,
      "componentType": 5126,
      "count": 15040,
      "max": [
        0.9912499785423279,
        0.9934700131416321
      ],
      "min": [
        0.006000000052154064,
        0.001510024070739746
      ],
      "type": "VEC2"
    },
    {
      "bufferView": 1,
      "byteOffset": 240640,
      "componentType": 5126,
      "count": 15040,
      "max": [
        0.9912499785423279,
        0.9934700131416321
      ],
      "min": [
        0.006000000052154064,
        0.001510024070739746
      ],
      "type": "VEC2"
    },
    {
      "bufferView": 1,
      "byteOffset": 360960,
      "componentType": 5126,
      "count": 15040,
      "max": [
        0.9912499785423279,
        0.9934700131416321
      ],
      "min": [
        0.006000000052154064,
        0.001510024070739746
      ],
      "type": "VEC2"
    },
    {
      "bufferView": 1,
      "byteOffset": 481280,
      "componentType": 5126,
      "count": 15040,
      "max": [
        0.9912499785423279,
        0.9934700131416321
      ],
      "min": [
        0.006000000052154064,
        0.001510024070739746
      ],
      "type": "VEC2"
    },
    {
      "bufferView": 0,
      "componentType": 5125,
      "count": 81963,
      "type": "SCALAR"
    }
  ],
  "asset": {
    "extras": {
      "author": "dhiren-sah (https://sketchfab.com/dhiren-sah)",
      "license": "CC-BY-4.0 (http://creativecommons.org/licenses/by/4.0/)",
      "source": "https://sketchfab.com/3d-models/goat-f376cd33f199435a991e9c3a77b45350",
      "title": "Goat"
    },
    "generator": "Sketchfab-16.9.0",
    "version": "2.0"
  },
  "bufferViews": [
    {
      "buffer": 0,
      "byteLength": 327852,
      "name": "floatBufferViews",
      "target": 34963
    },
    {
      "buffer": 0,
      "byteLength": 601600,
      "byteOffset": 327852,
      "byteStride": 8,
      "name": "floatBufferViews",
      "target": 34962
    },
    {
      "buffer": 0,
      "byteLength": 360960,
      "byteOffset": 929452,
      "byteStride": 12,
      "name": "floatBufferViews",
      "target": 34962
    },
    {
      "buffer": 0,
      "byteLength": 240640,
      "byteOffset": 1290412,
      "byteStride": 16,
      "name": "floatBufferViews",
      "target": 34962
    }
  ],
  "buffers": [
    {
      "byteLength": 1531052,
      "uri": ".bin"
    }
  ],
  "extensionsRequired": [
    "KHR_materials_pbrSpecularGlossiness"
  ],
  "extensionsUsed": [
    "KHR_materials_pbrSpecularGlossiness"
  ],
  "images": [
    {
      "uri": "textures/material_0_diffuse.png"
    },
    {
      "uri": "textures/material_0_specularGlossiness.png"
    },
    {
      "uri": "textures/material_0_normal.png"
    },
    {
      "uri": "textures/material_0_occlusion.png"
    }
  ],
  "materials": [
    {
      "doubleSided": true,
      "extensions": {
        "KHR_materials_pbrSpecularGlossiness": {
          "diffuseFactor": [
            1.0,
            1.0,
            1.0,
            1.0
          ],
          "diffuseTexture": {
            "index": 0
          },
          "glossinessFactor": 1.0,
          "specularFactor": [
            1.0,
            1.0,
            1.0
          ],
          "specularGlossinessTexture": {
            "index": 1
          }
        }
      },
      "name": "material_0",
      "normalTexture": {
        "index": 2
      },
      "occlusionTexture": {
        "index": 3
      }
    }
  ],
  "meshes": [
    {
      "name": "Object_0",
      "primitives": [
        {
          "attributes": {
            "NORMAL": 1,
            "POSITION": 0,
            "TANGENT": 2,
            "TEXCOORD_0": 3,
            "TEXCOORD_1": 4,
            "TEXCOORD_2": 5,
            "TEXCOORD_3": 6,
            "TEXCOORD_4": 7
          },
          "indices": 8,
          "material": 0,
          "mode": 4
        }
      ]
    }
  ],
  "nodes": [
    {
      "children": [
        1
      ],
      "matrix": [
        1.0,
        0.0,
        0.0,
        0.0,
        0.0,
        2.220446049250313e-16,
        -1.0,
        0.0,
        0.0,
        1.0,
        2.220446049250313e-16,
        0.0,
        0.0,
        0.0,
        0.0,
        1.0
      ],
      "name": "Sketchfab_model"
    },
    {
      "children": [
        2
      ],
      "name": "root"
    },
    {
      "children": [
        3
      ],
      "matrix": [
        1.0,
        0.0,
        0.0,
        0.0,
        0.0,
        2.220446049250313e-16,
        1.0,
        0.0,
        0.0,
        -1.0,
        2.220446049250313e-16,
        0.0,
        0.0,
        0.0,
        0.0,
        1.0
      ],
      "name": "GLTF_SceneRootNode"
    },
    {
      "children": [
        4
      ],
      "matrix": [
        0.009999999776482582,
        0.0,
        0.0,
        0.0,
        0.0,
        0.009999999776482582,
        0.0,
        0.0,
        0.0,
        0.0,
        0.009999999776482582,
        0.0,
        0.0,
        0.0,
        0.0,
        1.0
      ],
      "name": "RootNode.0_0"
    },
    {
      "children": [
        5
      ],
      "name": "geo.1_1"
    },
    {
      "children": [
        6
      ],
      "name": "goat.2_2"
    },
    {
      "mesh": 0,
      "name": "Object_6"
    }
  ],
  "samplers": [
    {
      "magFilter": 9729,
      "minFilter": 9987,
      "wrapS": 10497,
      "wrapT": 10497
    }
  ],
  "scene": 0,
  "scenes": [
    {
      "name": "Sketchfab_Scene",
      "nodes": [
        0
      ]
    }
  ],
  "textures": [
    {
      "sampler": 0,
      "source": 0
    },
    {
      "sampler": 0,
      "source": 1
    },
    {
      "sampler": 0,
      "source": 2
    },
    {
      "sampler": 0,
      "source": 3
    }
  ]
}
