{
  "accessors": [
    {
      "bufferView": 3,
      "componentType": 5126,
      "count": 442,
      "max": [
        9.811692237854004,
        -7.706928253173828,
        5.755265712738037
      ],
      "min": [
        -9.811692237854004,
        -21.631855010986328,
        -7.711761951446533
      ],
      "type": "VEC3"
    },
    {
      "bufferView": 3,
      "byteOffset": 5304,
      "componentType": 5126,
      "count": 442,
      "max": [
        1.0,
        0.9927725195884705,
        1.0
      ],
      "min": [
        -1.0,
        -0.9995779991149902,
        -1.0
      ],
      "type": "VEC3"
    },
    {
      "bufferView": 2,
      "componentType": 5126,
      "count": 442,
      "max": [
        0.8968222141265869,
        0.9234268665313721
      ],
      "min": [
        0.47922050952911377,
        0.4945417642593384
      ],
      "type": "VEC2"
    },
    {
      "bufferView": 1,
      "componentType": 5125,
      "count": 1968,
      "type": "SCALAR"
    },
    {
      "bufferView": 3,
      "byteOffset": 10608,
      "componentType": 5126,
      "count": 372,
      "max": [
        0.8540283441543579,
        1.7767400741577148,
        1.7856303453445435
      ],
      "min": [
        -0.8540283441543579,
        -0.5458362698554993,
        -1.936339259147644
      ],
      "type": "VEC3"
    },
    {
      "bufferView": 3,
      "byteOffset": 15072,
      "componentType": 5126,
      "count": 372,
      "max": [
        0.9967742562294006,
        1.0,
        0.9988834261894226
      ],
      "min": [
        -0.9967742562294006,
        -0.9995937347412109,
        -0.9999920129776001
      ],
      "type": "VEC3"
    },
    {
      "bufferView": 2,
      "byteOffset": 3536,
      "componentType": 5126,
      "count": 372,
      "max": [
        0.47947394847869873,
        0.9149855375289917
      ],
      "min": [
        0.048400308936834335,
        0.1391337811946869
      ],
      "type": "VEC2"
    },
    {
      "bufferView": 1,
      "byteOffset": 7872,
      "componentType": 5125,
      "count": 2160,
      "type": "SCALAR"
    },
    {
      "bufferView": 3,
      "byteOffset": 19536,
      "componentType": 5126,
      "count": 480,
      "max": [
        0.22286751866340637,
        1.400534987449646,
        1.5018850564956665
      ],
      "min": [
        -0.22286751866340637,
        1.177215337753296,
        1.3923708200454712
      ],
      "type": "VEC3"
    },
    {
      "bufferView": 3,
      "byteOffset": 25296,
      "componentType": 5126,
      "count": 480,
      "max": [
        0.9569465517997742,
        0.9569500684738159,
        1.0
      ],
      "min": [
        -0.9569465517997742,
        -0.9569500684738159,
        0.08462889492511749
      ],
      "type": "VEC3"
    },
    {
      "bufferView": 2,
      "byteOffset": 6512,
      "componentType": 5126,
      "count": 480,
      "max": [
        0.8842617273330688,
        0.4305799603462219
      ],
      "min": [
        0.6615890860557556,
        0.06742028892040253
      ],
      "type": "VEC2"
    },
    {
      "bufferView": 1,
      "byteOffset": 16512,
      "componentType": 5125,
      "count": 2352,
      "type": "SCALAR"
    },
    {
      "bufferView": 3,
      "byteOffset": 31056,
      "componentType": 5126,
      "count": 142,
      "max": [
        9.573946952819824,
        1.1026123762130737,
        1.1451443433761597
      ],
      "min": [
        4.0166335105896,
        -2.242269277572632,
        -1.302293300628662
      ],
      "type": "VEC3"
    },
    {
      "bufferView": 3,
      "byteOffset": 32760,
      "componentType": 5126,
      "count": 142,
      "max": [
        0.9934786558151245,
        0.9989904761314392,
        0.9873507618904114
      ],
      "min": [
        -0.9839333891868591,
        -0.9989904761314392,
        -0.9873507618904114
      ],
      "type": "VEC3"
    },
    {
      "bufferView": 2,
      "byteOffset": 10352,
      "componentType": 5126,
      "count": 142,
      "max": [
        0.8750001192092896,
        1.0000001192092896
      ],
      "min": [
        0.1250000149011612,
        0.0
      ],
      "type": "VEC2"
    },
    {
      "bufferView": 1,
      "byteOffset": 25920,
      "componentType": 5125,
      "count": 480,
      "type": "SCALAR"
    },
    {
      "bufferView": 5,
      "componentType": 5126,
      "count": 8,
      "max": [
        1.0,
        1.1866072360811053e-12,
        0.0,
        0.0,
        1.8044067928713048e-07,
        1.0,
        0.8076260089874268,
        0.0,
        3.449569589974999e-07,
        0.9774659872055054,
        1.0,
        0.0,
        2.808911858664942e-07,
        0.44335997104644775,
        0.664450466632843,
        1.0
      ],
      "min": [
        -1.0,
        -1.4210853021136109e-14,
        -1.1920928955078125e-06,
        0.0,
        -1.1652296052488964e-06,
        0.21109306812286377,
        -0.9774665832519531,
        0.0,
        0.0,
        -0.8076260685920715,
        -0.9175557494163513,
        0.0,
        -2.116061352808174e-07,
        -1.5615657567977905,
        0.0,
        1.0
      ],
      "type": "MAT4"
    },
    {
      "bufferView": 0,
      "componentType": 5123,
      "count": 372,
      "type": "VEC4"
    },
    {
      "bufferView": 4,
      "componentType": 5126,
      "count": 372,
      "max": [
        1.0,
        0.4941159784793854,
        0.23823387920856476,
        0.08861485123634338
      ],
      "min": [
        0.39189234375953674,
        0.0,
        0.0,
        0.0
      ],
      "type": "VEC4"
    },
    {
      "bufferView": 0,
      "byteOffset": 2976,
      "componentType": 5123,
      "count": 480,
      "type": "VEC4"
    },
    {
      "bufferView": 4,
      "byteOffset": 5952,
      "componentType": 5126,
      "count": 480,
      "max": [
        1.0,
        0.029969142749905586,
        0.0,
        0.0
      ],
      "min": [
        0.9700308442115784,
        0.0,
        0.0,
        0.0
      ],
      "type": "VEC4"
    },
    {
      "bufferView": 6,
      "componentType": 5126,
      "count": 131,
      "max": [
        5.833333492279053
      ],
      "min": [
        0.4166666567325592
      ],
      "type": "SCALAR"
    },
    {
      "bufferView": 8,
      "componentType": 5126,
      "count": 131,
      "max": [
        0.028501691296696663,
        0.47888055443763733,
        0.3023532032966614,
        0.9996861815452576
      ],
      "min": [
        -0.13147622346878052,
        -0.21853069961071014,
        -0.11648884415626526,
        0.8664394021034241
      ],
      "type": "VEC4"
    },
    {
      "bufferView": 6,
      "byteOffset": 524,
      "componentType": 5126,
      "count": 126,
      "max": [
        5.833333492279053
      ],
      "min": [
        0.4166666567325592
      ],
      "type": "SCALAR"
    },
    {
      "bufferView": 7,
      "componentType": 5126,
      "count": 126,
      "max": [
        1.0000001192092896,
        1.0,
        1.0000001192092896
      ],
      "min": [
        0.9999998807907104,
        0.9999998211860657,
        0.9999998211860657
      ],
      "type": "VEC3"
    },
    {
      "bufferView": 6,
      "byteOffset": 1028,
      "componentType": 5126,
      "count": 131,
      "max": [
        5.833333492279053
      ],
      "min": [
        0.4166666567325592
      ],
      "type": "SCALAR"
    },
    {
      "bufferView": 7,
      "byteOffset": 1512,
      "componentType": 5126,
      "count": 131,
      "max": [
        1.4901161193847656e-07,
        0.3059055209159851,
        5.914272804830034e-08
      ],
      "min": [
        -1.1920928955078125e-07,
        0.30590492486953735,
        -2.0803885547593381e-07
      ],
      "type": "VEC3"
    },
    {
      "bufferView": 6,
      "byteOffset": 1552,
      "componentType": 5126,
      "count": 131,
      "max": [
        5.833333492279053
      ],
      "min": [
        0.4166666567325592
      ],
      "type": "SCALAR"
    },
    {
      "bufferView": 8,
      "byteOffset": 2096,
      "componentType": 5126,
      "count": 131,
      "max": [
        0.044016141444444656,
        2.2330089777256035e-08,
        2.2352834250227716e-08,
        0.9990308284759521
      ],
      "min": [
        0.04401608929038048,
        -2.531293397112222e-08,
        -8.855367106264111e-09,
        0.9990308284759521
      ],
      "type": "VEC4"
    },
    {
      "bufferView": 6,
      "byteOffset": 2076,
      "componentType": 5126,
      "count": 125,
      "max": [
        5.833333492279053
      ],
      "min": [
        0.4166666567325592
      ],
      "type": "SCALAR"
    },
    {
      "bufferView": 7,
      "byteOffset": 3084,
      "componentType": 5126,
      "count": 125,
      "max": [
        1.000000238418579,
        1.0000001192092896,
        1.0000001192092896
      ],
      "min": [
        0.9999998807907104,
        0.9999998211860657,
        0.9999998807907104
      ],
      "type": "VEC3"
    },
    {
      "bufferView": 6,
      "byteOffset": 2576,
      "componentType": 5126,
      "count": 33,
      "max": [
        5.833333492279053
      ],
      "min": [
        0.4166666567325592
      ],
      "type": "SCALAR"
    },
    {
      "bufferView": 8,
      "byteOffset": 4192,
      "componentType": 5126,
      "count": 33,
      "max": [
        0.33006414771080017,
        -0.000637071905657649,
        0.07890882343053818,
        0.9974552989006042
      ],
      "min": [
        0.07125835865736008,
        -0.022972702980041504,
        0.0021882758010178804,
        0.9403741359710693
      ],
      "type": "VEC4"
    },
    {
      "bufferView": 6,
      "byteOffset": 2708,
      "componentType": 5126,
      "count": 29,
      "max": [
        5.833333492279053
      ],
      "min": [
        0.4166666567325592
      ],
      "type": "SCALAR"
    },
    {
      "bufferView": 7,
      "byteOffset": 4584,
      "componentType": 5126,
      "count": 29,
      "max": [
        1.0,
        1.0000001192092896,
        1.000000238418579
      ],
      "min": [
        0.9999999403953552,
        1.0,
        1.0
      ],
      "type": "VEC3"
    },
    {
      "bufferView": 6,
      "byteOffset": 2824,
      "componentType": 5126,
      "count": 31,
      "max": [
        5.833333492279053
      ],
      "min": [
        0.4166666567325592
      ],
      "type": "SCALAR"
    },
    {
      "bufferView": 7,
      "byteOffset": 4932,
      "componentType": 5126,
      "count": 31,
      "max": [
        2.9802322387695313e-08,
        0.35785412788391113,
        1.8417185287944449e-07
      ],
      "min": [
        -2.9802322387695313e-08,
        0.35785365104675293,
        -5.421013860029689e-09
      ],
      "type": "VEC3"
    },
    {
      "bufferView": 6,
      "byteOffset": 2948,
      "componentType": 5126,
      "count": 51,
      "max": [
        5.833333492279053
      ],
      "min": [
        0.4166666567325592
      ],
      "type": "SCALAR"
    },
    {
      "bufferView": 8,
      "byteOffset": 4720,
      "componentType": 5126,
      "count": 51,
      "max": [
        0.2544863522052765,
        -0.0050247348845005035,
        0.08191131055355072,
        0.999936044216156
      ],
      "min": [
        -0.20944459736347198,
        -0.02140483632683754,
        -0.034329384565353394,
        0.963388204574585
      ],
      "type": "VEC4"
    },
    {
      "bufferView": 6,
      "byteOffset": 3152,
      "componentType": 5126,
      "count": 44,
      "max": [
        5.833333492279053
      ],
      "min": [
        0.4166666567325592
      ],
      "type": "SCALAR"
    },
    {
      "bufferView": 7,
      "byteOffset": 5304,
      "componentType": 5126,
      "count": 44,
      "max": [
        1.0000001192092896,
        1.0000001192092896,
        1.0000001192092896
      ],
      "min": [
        0.9999998211860657,
        0.9999999403953552,
        1.0
      ],
      "type": "VEC3"
    }
  ],
  "animations": [
    {
      "channels": [
        {
          "sampler": 0,
          "target": {
            "node": 14,
            "path": "rotation"
          }
        },
        {
          "sampler": 1,
          "target": {
            "node": 14,
            "path": "scale"
          }
        },
        {
          "sampler": 2,
          "target": {
            "node": 15,
            "path": "translation"
          }
        },
        {
          "sampler": 3,
          "target": {
            "node": 15,
            "path": "rotation"
          }
        },
        {
          "sampler": 4,
          "target": {
            "node": 15,
            "path": "scale"
          }
        },
        {
          "sampler": 5,
          "target": {
            "node": 17,
            "path": "rotation"
          }
        },
        {
          "sampler": 6,
          "target": {
            "node": 17,
            "path": "scale"
          }
        },
        {
          "sampler": 7,
          "target": {
            "node": 18,
            "path": "translation"
          }
        },
        {
          "sampler": 8,
          "target": {
            "node": 18,
            "path": "rotation"
          }
        },
        {
          "sampler": 9,
          "target": {
            "node": 18,
            "path": "scale"
          }
        }
      ],
      "name": "ArmatureAction",
      "samplers": [
        {
          "input": 21,
          "interpolation": "LINEAR",
          "output": 22
        },
        {
          "input": 23,
          "interpolation": "LINEAR",
          "output": 24
        },
        {
          "input": 25,
          "interpolation": "LINEAR",
          "output": 26
        },
        {
          "input": 27,
          "interpolation": "LINEAR",
          "output": 28
        },
        {
          "input": 29,
          "interpolation": "LINEAR",
          "output": 30
        },
        {
          "input": 31,
          "interpolation": "LINEAR",
          "output": 32
        },
        {
          "input": 33,
          "interpolation": "LINEAR",
          "output": 34
        },
        {
          "input": 35,
          "interpolation": "LINEAR",
          "output": 36
        },
        {
          "input": 37,
          "interpolation": "LINEAR",
          "output": 38
        },
        {
          "input": 39,
          "interpolation": "LINEAR",
          "output": 40
        }
      ]
    }
  ],
  "asset": {
    "extras": {
      "author": "A J (https://sketchfab.com/javasparrow)",
      "license": "CC-BY-4.0 (http://creativecommons.org/licenses/by/4.0/)",
      "source": "https://sketchfab.com/3d-models/chook-f83d2745afee42eeb2b385191d99391b",
      "title": "Chook"
    },
    "generator": "Sketchfab-12.68.0",
    "version": "2.0"
  },
  "bufferViews": [
    {
      "buffer": 0,
      "byteLength": 6816,
      "byteStride": 8,
      "name": "shortBufferViews",
      "target": 34962
    },
    {
      "buffer": 0,
      "byteLength": 27840,
      "byteOffset": 6816,
      "name": "floatBufferViews",
      "target": 34963
    },
    {
      "buffer": 0,
      "byteLength": 11488,
      "byteOffset": 34656,
      "byteStride": 8,
      "name": "floatBufferViews",
      "target": 34962
    },
    {
      "buffer": 0,
      "byteLength": 34464,
      "byteOffset": 46144,
      "byteStride": 12,
      "name": "floatBufferViews",
      "target": 34962
    },
    {
      "buffer": 0,
      "byteLength": 13632,
      "byteOffset": 80608,
      "byteStride": 16,
      "name": "floatBufferViews",
      "target": 34962
    },
    {
      "buffer": 0,
      "byteLength": 512,
      "byteOffset": 94240,
      "name": "floatBufferViews"
    },
    {
      "buffer": 0,
      "byteLength": 3328,
      "byteOffset": 94752,
      "name": "floatBufferViews"
    },
    {
      "buffer": 0,
      "byteLength": 5832,
      "byteOffset": 98080,
      "byteStride": 12,
      "name": "floatBufferViews"
    },
    {
      "buffer": 0,
      "byteLength": 5536,
      "byteOffset": 103912,
      "byteStride": 16,
      "name": "floatBufferViews"
    }
  ],
  "buffers": [
    {
      "byteLength": 109448,
      "uri": "scene.bin"
    }
  ],
  "extensionsUsed": [
    "KHR_materials_unlit"
  ],
  "images": [
    {
      "uri": "textures/Material_baseColor.png"
    }
  ],
  "materials": [
    {
      "doubleSided": true,
      "extensions": {
        "KHR_materials_unlit": {}
      },
      "name": "Material",
      "pbrMetallicRoughness": {
        "baseColorTexture": {
          "index": 0
        },
        "metallicFactor": 0.0
      }
    },
    {
      "doubleSided": true,
      "extensions": {
        "KHR_materials_unlit": {}
      },
      "name": "Material.001",
      "pbrMetallicRoughness": {
        "baseColorTexture": {
          "index": 0
        },
        "metallicFactor": 0.0
      }
    },
    {
      "doubleSided": true,
      "extensions": {
        "KHR_materials_unlit": {}
      },
      "name": "Material.002",
      "pbrMetallicRoughness": {
        "baseColorFactor": [
          0.438543,
          0.377441,
          0.275915,
          1.0
        ],
        "metallicFactor": 0.0
      }
    }
  ],
  "meshes": [
    {
      "name": "Object_0",
      "primitives": [
        {
          "attributes": {
            "NORMAL": 1,
            "POSITION": 0,
            "TEXCOORD_0": 2
          },
          "indices": 3,
          "material": 0,
          "mode": 4
        }
      ]
    },
    {
      "name": "Object_1",
      "primitives": [
        {
          "attributes": {
            "JOINTS_0": 17,
            "NORMAL": 5,
            "POSITION": 4,
            "TEXCOORD_0": 6,
            "WEIGHTS_0": 18
          },
          "indices": 7,
          "material": 0,
          "mode": 4
        }
      ]
    },
    {
      "name": "Object_2",
      "primitives": [
        {
          "attributes": {
            "JOINTS_0": 19,
            "NORMAL": 9,
            "POSITION": 8,
            "TEXCOORD_0": 10,
            "WEIGHTS_0": 20
          },
          "indices": 11,
          "material": 1,
          "mode": 4
        }
      ]
    },
    {
      "name": "Object_3",
      "primitives": [
        {
          "attributes": {
            "NORMAL": 13,
            "POSITION": 12,
            "TEXCOORD_0": 14
          },
          "indices": 15,
          "material": 2,
          "mode": 4
        }
      ]
    }
  ],
  "nodes": [
    {
      "children": [
        1
      ],
      "matrix": [
        1.0,
        0.0,
        0.0,
        0.0,
        0.0,
        2.220446049250313e-16,
        -1.0,
        0.0,
        0.0,
        1.0,
        2.220446049250313e-16,
        0.0,
        0.06983897089958191,
        -0.02938667871057988,
        0.03528486937284469,
        1.0
      ],
      "name": "Sketchfab_model"
    },
    {
      "children": [
        2
      ],
      "name": "root"
    },
    {
      "children": [
        3,
        19
      ],
      "matrix": [
        1.0,
        0.0,
        0.0,
        0.0,
        0.0,
        2.220446049250313e-16,
        1.0,
        0.0,
        0.0,
        -1.0,
        2.220446049250313e-16,
        0.0,
        0.0,
        0.0,
        0.0,
        1.0
      ],
      "name": "GLTF_SceneRootNode"
    },
    {
      "children": [
        4
      ],
      "name": "Armature_12"
    },
    {
      "children": [
        5,
        9,
        11,
        6,
        8,
        10
      ],
      "name": "GLTF_created_0"
    },
    {
      "children": [
        12,
        16
      ],
      "name": "GLTF_created_0_rootJoint"
    },
    {
      "children": [
        7
      ],
      "matrix": [
        0.054230451583862305,
        0.0,
        0.0,
        0.0,
        0.0,
        0.054230451583862305,
        0.0,
        0.0,
        0.0,
        0.0,
        0.054230451583862305,
        0.0,
        0.0,
        0.0,
        0.0,
        1.0
      ],
      "name": "Cube_2"
    },
    {
      "mesh": 0,
      "name": "Object_7"
    },
    {
      "name": "Sphere_10"
    },
    {
      "mesh": 1,
      "name": "Object_9",
      "skin": 0
    },
    {
      "matrix": [
        0.14455437660217285,
        0.0,
        0.0,
        0.0,
        0.0,
        0.14455437660217285,
        0.0,
        0.0,
        0.0,
        0.0,
        0.14455437660217285,
        0.0,
        0.0,
        0.0,
        0.0,
        1.0
      ],
      "name": "Sphere.001_11"
    },
    {
      "mesh": 2,
      "name": "Object_11",
      "skin": 0
    },
    {
      "children": [
        13
      ],
      "name": "Bone_6",
      "rotation": [
        0.6280553340911865,
        -4.638244206489617e-07,
        -3.7434995192597853e-07,
        0.7781686782836914
      ],
      "scale": [
        1.0,
        1.0,
        0.9999994039535522
      ],
      "translation": [
        3.035991737830517e-17,
        0.1367289125919342,
        -0.48310887813568115
      ]
    },
    {
      "children": [
        14
      ],
      "name": "Bone.001_5",
      "rotation": [
        -1.7014463082887232e-07,
        0.9056885838508606,
        -0.42394354939460754,
        -7.161766006902326e-07
      ],
      "scale": [
        1.0,
        0.9999998211860657,
        0.9999999403953552
      ],
      "translation": [
        3.0359884291080667e-17,
        1.347520351409912,
        -1.4901161193847656e-08
      ]
    },
    {
      "children": [
        15
      ],
      "name": "Bone.002_4",
      "rotation": [
        -0.007002478931099176,
        -0.21853068470954895,
        -0.11648885160684586,
        0.968826949596405
      ],
      "scale": [
        1.0,
        1.0000001192092896,
        0.9999999403953552
      ],
      "translation": [
        2.2563636343456844e-15,
        0.540228545665741,
        -5.960464477539063e-08
      ]
    },
    {
      "name": "Bone.003_3",
      "rotation": [
        0.044016119092702866,
        1.600272072786648e-14,
        6.646251105024703e-09,
        0.9990308284759521
      ],
      "scale": [
        1.0,
        0.9999999403953552,
        1.0
      ],
      "translation": [
        -8.516990823541348e-15,
        0.30590516328811646,
        -5.960464477539063e-08
      ]
    },
    {
      "children": [
        17
      ],
      "name": "Bone.004_9",
      "rotation": [
        -0.45293763279914856,
        -4.869489181624526e-17,
        -4.869489181624526e-17,
        0.8915421962738037
      ],
      "scale": [
        1.0,
        0.9999999403953552,
        1.0
      ],
      "translation": [
        3.035991737830517e-17,
        0.1367289125919342,
        -0.48310887813568115
      ]
    },
    {
      "children": [
        18
      ],
      "name": "Bone.005_8",
      "rotation": [
        0.07125836610794067,
        -0.000637071905657649,
        0.0021882758010178804,
        0.9974552989006042
      ],
      "scale": [
        1.0,
        1.0,
        1.0000001192092896
      ],
      "translation": [
        -8.271806125530277e-24,
        0.71104896068573,
        -2.9802322387695313e-08
      ]
    },
    {
      "name": "Bone.006_7",
      "rotation": [
        0.162072092294693,
        -0.013528446666896343,
        0.05469823628664017,
        0.9851688742637634
      ],
      "scale": [
        1.0,
        1.0000001192092896,
        1.0000001192092896
      ],
      "translation": [
        -6.617444900424222e-24,
        0.35785388946533203,
        5.960464477539063e-08
      ]
    },
    {
      "children": [
        20
      ],
      "name": "Cube.001_13",
      "scale": [
        0.16404381394386292,
        0.16404381394386292,
        0.16404381394386292
      ],
      "translation": [
        -1.5573761463165283,
        -0.8127768635749817,
        -0.6856094598770142
      ]
    },
    {
      "mesh": 3,
      "name": "Object_20"
    }
  ],
  "samplers": [
    {
      "magFilter": 9729,
      "minFilter": 9987,
      "wrapS": 10497,
      "wrapT": 10497
    }
  ],
  "scene": 0,
  "scenes": [
    {
      "name": "Sketchfab_Scene",
      "nodes": [
        0
      ]
    }
  ],
  "skins": [
    {
      "inverseBindMatrices": 16,
      "joints": [
        5,
        12,
        13,
        14,
        15,
        16,
        17,
        18
      ],
      "skeleton": 5
    }
  ],
  "textures": [
    {
      "sampler": 0,
      "source": 0
    }
  ]
}
