{
  "accessors": [
    {
      "bufferView": 3,
      "componentType": 5126,
      "count": 31968,
      "max": [
        3.9911179542541504,
        3.9876532554626465,
        1.484136939048767
      ],
      "min": [
        -3.987323760986328,
        -3.9899449348449707,
        -1.4841359853744507
      ],
      "type": "VEC3"
    },
    {
      "bufferView": 3,
      "byteOffset": 383616,
      "componentType": 5126,
      "count": 31968,
      "max": [
        1.0,
        1.0,
        1.0
      ],
      "min": [
        -1.0,
        -1.0,
        -1.0
      ],
      "type": "VEC3"
    },
    {
      "bufferView": 4,
      "componentType": 5126,
      "count": 31968,
      "max": [
        0.9999999403953552,
        0.999998927116394,
        1.0,
        1.0
      ],
      "min": [
        -1.0,
        -0.9999987483024597,
        -1.0,
        1.0
      ],
      "type": "VEC4"
    },
    {
      "bufferView": 2,
      "componentType": 5126,
      "count": 31968,
      "max": [
        0.998955249786377,
        0.9989553093910217
      ],
      "min": [
        0.0010447228560224175,
        0.0010447214590385556
      ],
      "type": "VEC2"
    },
    {
      "bufferView": 2,
      "byteOffset": 255744,
      "componentType": 5126,
      "count": 31968,
      "max": [
        0.9992903470993042,
        0.9992899298667908
      ],
      "min": [
        0.0007096775807440281,
        0.0007100692018866539
      ],
      "type": "VEC2"
    },
    {
      "bufferView": 1,
      "componentType": 5125,
      "count": 124992,
      "type": "SCALAR"
    },
    {
      "bufferView": 5,
      "componentType": 5126,
      "count": 3,
      "max": [
        100.0,
        0.0,
        0.0,
        0.0,
        0.0,
        100.0,
        0.0,
        0.0,
        0.0,
        0.0,
        100.0,
        0.0,
        1.1920928955078125e-07,
        0.0,
        0.0,
        1.0
      ],
      "min": [
        1.0,
        0.0,
        0.0,
        0.0,
        0.0,
        1.0,
        0.0,
        0.0,
        0.0,
        0.0,
        1.0,
        0.0,
        0.0,
        -4.76837158203125e-07,
        0.0,
        1.0
      ],
      "type": "MAT4"
    },
    {
      "bufferView": 0,
      "componentType": 5123,
      "count": 31968,
      "type": "VEC4"
    },
    {
      "bufferView": 4,
      "byteOffset": 511488,
      "componentType": 5126,
      "count": 31968,
      "max": [
        1.0,
        0.0,
        0.0,
        0.0
      ],
      "min": [
        1.0,
        0.0,
        0.0,
        0.0
      ],
      "type": "VEC4"
    },
    {
      "bufferView": 6,
      "componentType": 5126,
      "count": 151,
      "max": [
        5.0
      ],
      "min": [
        0.0
      ],
      "type": "SCALAR"
    },
    {
      "bufferView": 7,
      "componentType": 5126,
      "count": 151,
      "max": [
        0.7071068286895752,
        7.850462159063936e-17,
        7.850463482552916e-17,
        0.7071067094802856
      ],
      "min": [
        0.7071068286895752,
        -7.850461497319446e-17,
        -7.850462159063936e-17,
        0.7071067094802856
      ],
      "type": "VEC4"
    },
    {
      "bufferView": 6,
      "byteOffset": 604,
      "componentType": 5126,
      "count": 241,
      "max": [
        5.0
      ],
      "min": [
        0.0
      ],
      "type": "SCALAR"
    },
    {
      "bufferView": 7,
      "byteOffset": 2416,
      "componentType": 5126,
      "count": 241,
      "max": [
        0.5000000596046448,
        0.7071068286895752,
        0.4999999403953552,
        0.7071067094802856
      ],
      "min": [
        -0.7071068286895752,
        -0.5,
        -0.7071067094802856,
        -0.5
      ],
      "type": "VEC4"
    }
  ],
  "animations": [
    {
      "channels": [
        {
          "sampler": 0,
          "target": {
            "node": 7,
            "path": "rotation"
          }
        },
        {
          "sampler": 1,
          "target": {
            "node": 4,
            "path": "rotation"
          }
        }
      ],
      "name": "Armature|Roll",
      "samplers": [
        {
          "input": 9,
          "interpolation": "LINEAR",
          "output": 10
        },
        {
          "input": 11,
          "interpolation": "LINEAR",
          "output": 12
        }
      ]
    }
  ],
  "asset": {
    "extras": {
      "author": "Blender3D (https://sketchfab.com/Blender3D)",
      "license": "CC-BY-4.0 (http://creativecommons.org/licenses/by/4.0/)",
      "source": "https://sketchfab.com/3d-models/simple-high-poly-wheel-27f5979b8dd04d1eb42580bf8bb4f5c3",
      "title": "Simple High Poly Wheel"
    },
    "generator": "Sketchfab-12.66.0",
    "version": "2.0"
  },
  "bufferViews": [
    {
      "buffer": 0,
      "byteLength": 255744,
      "byteStride": 8,
      "name": "shortBufferViews",
      "target": 34962
    },
    {
      "buffer": 0,
      "byteLength": 499968,
      "byteOffset": 255744,
      "name": "floatBufferViews",
      "target": 34963
    },
    {
      "buffer": 0,
      "byteLength": 511488,
      "byteOffset": 755712,
      "byteStride": 8,
      "name": "floatBufferViews",
      "target": 34962
    },
    {
      "buffer": 0,
      "byteLength": 767232,
      "byteOffset": 1267200,
      "byteStride": 12,
      "name": "floatBufferViews",
      "target": 34962
    },
    {
      "buffer": 0,
      "byteLength": 1022976,
      "byteOffset": 2034432,
      "byteStride": 16,
      "name": "floatBufferViews",
      "target": 34962
    },
    {
      "buffer": 0,
      "byteLength": 192,
      "byteOffset": 3057408,
      "name": "floatBufferViews"
    },
    {
      "buffer": 0,
      "byteLength": 1568,
      "byteOffset": 3057600,
      "name": "floatBufferViews"
    },
    {
      "buffer": 0,
      "byteLength": 6272,
      "byteOffset": 3059168,
      "byteStride": 16,
      "name": "floatBufferViews"
    }
  ],
  "buffers": [
    {
      "byteLength": 3065440,
      "uri": "scene.bin"
    }
  ],
  "images": [
    {
      "uri": "textures/Scene_-_Root_baseColor.jpeg"
    },
    {
      "uri": "textures/Scene_-_Root_metallicRoughness.png"
    },
    {
      "uri": "textures/Scene_-_Root_normal.jpeg"
    }
  ],
  "materials": [
    {
      "name": "Scene_-_Root",
      "normalTexture": {
        "index": 2,
        "scale": 0.4509091001568419
      },
      "occlusionTexture": {
        "index": 1,
        "strength": 0.35393940318714495
      },
      "pbrMetallicRoughness": {
        "baseColorTexture": {
          "index": 0
        },
        "metallicFactor": 0.6387878880356297,
        "metallicRoughnessTexture": {
          "index": 1
        }
      }
    }
  ],
  "meshes": [
    {
      "name": "Cylinder.009__0",
      "primitives": [
        {
          "attributes": {
            "JOINTS_0": 7,
            "NORMAL": 1,
            "POSITION": 0,
            "TANGENT": 2,
            "TEXCOORD_0": 3,
            "TEXCOORD_1": 4,
            "WEIGHTS_0": 8
          },
          "indices": 5,
          "material": 0,
          "mode": 4
        }
      ]
    }
  ],
  "nodes": [
    {
      "children": [
        1
      ],
      "matrix": [
        1.0,
        0.0,
        0.0,
        0.0,
        0.0,
        2.220446049250313e-16,
        -1.0,
        0.0,
        0.0,
        1.0,
        2.220446049250313e-16,
        0.0,
        0.0,
        0.0,
        0.0,
        1.0
      ],
      "name": "Sketchfab_model"
    },
    {
      "children": [
        2
      ],
      "matrix": [
        1.0,
        0.0,
        0.0,
        0.0,
        0.0,
        0.0,
        1.0,
        0.0,
        0.0,
        -1.0,
        0.0,
        0.0,
        0.0,
        0.0,
        0.0,
        1.0
      ],
      "name": "Tire.fbx"
    },
    {
      "children": [
        3
      ],
      "name": "Object_2"
    },
    {
      "children": [
        4,
        11,
        12,
        13
      ],
      "name": "RootNode"
    },
    {
      "children": [
        5
      ],
      "name": "Armature",
      "rotation": [
        -0.7071068286895752,
        0.0,
        0.0,
        0.7071067094802856
      ],
      "scale": [
        100.0,
        100.0,
        100.0
      ],
      "translation": [
        -1.1920928955078125e-05,
        4.76837158203125e-05,
        0.0
      ]
    },
    {
      "children": [
        6,
        10,
        9
      ],
      "name": "Object_5"
    },
    {
      "children": [
        7
      ],
      "name": "_rootJoint"
    },
    {
      "children": [
        8
      ],
      "name": "Bone_00",
      "rotation": [
        0.7071068286895752,
        0.0,
        0.0,
        0.7071067094802856
      ]
    },
    {
      "name": "Bone_end_01",
      "translation": [
        0.0,
        1.0,
        0.0
      ]
    },
    {
      "matrix": [
        100.0,
        0.0,
        0.0,
        0.0,
        0.0,
        6.123233995736766e-15,
        -100.0,
        0.0,
        0.0,
        100.0,
        6.123233995736766e-15,
        0.0,
        -1.1920928955078125e-05,
        3.5762786865234375e-05,
        0.0,
        1.0
      ],
      "name": "Object_9"
    },
    {
      "mesh": 0,
      "name": "Object_10",
      "skin": 0
    },
    {
      "name": "Cylinder.009",
      "rotation": [
        -0.7071068286895752,
        0.0,
        0.0,
        0.7071067094802856
      ],
      "scale": [
        100.0,
        100.0,
        100.0
      ],
      "translation": [
        -1.1920928955078125e-05,
        3.5762786865234375e-05,
        0.0
      ]
    },
    {
      "name": "AAA",
      "rotation": [
        -0.6831123232841492,
        -0.18264052271842957,
        0.18264052271842957,
        0.6831123232841492
      ],
      "scale": [
        100.00000762939453,
        100.0,
        100.00000762939453
      ],
      "translation": [
        -1.1920928955078125e-05,
        3.5762786865234375e-05,
        0.0
      ]
    },
    {
      "name": "aaa",
      "rotation": [
        -0.7071068286895752,
        0.0,
        0.0,
        0.7071067094802856
      ],
      "scale": [
        100.0,
        100.0,
        100.0
      ]
    }
  ],
  "samplers": [
    {
      "magFilter": 9729,
      "minFilter": 9987,
      "wrapS": 10497,
      "wrapT": 10497
    }
  ],
  "scene": 0,
  "scenes": [
    {
      "name": "Sketchfab_Scene",
      "nodes": [
        0
      ]
    }
  ],
  "skins": [
    {
      "inverseBindMatrices": 6,
      "joints": [
        6,
        7,
        8
      ],
      "skeleton": 6
    }
  ],
  "textures": [
    {
      "sampler": 0,
      "source": 0
    },
    {
      "sampler": 0,
      "source": 1
    },
    {
      "sampler": 0,
      "source": 2
    }
  ]
}
